<?xml version="1.0" standalone="no"?>
<!DOCTYPE svg PUBLIC "-//W3C//DTD SVG 20010904//EN"
 "http://www.w3.org/TR/2001/REC-SVG-20010904/DTD/svg10.dtd">
<svg version="1.0" xmlns="http://www.w3.org/2000/svg"
 width="500.000000pt" height="500.000000pt" viewBox="0 0 500.000000 500.000000"
 preserveAspectRatio="xMidYMid meet">

<g transform="translate(0.000000,500.000000) scale(0.100000,-0.100000)"
fill="#000000" stroke="none">
<path d="M2955 4084 c-154 -69 -290 -135 -302 -147 -12 -12 -70 -105 -128
-207 -114 -200 -118 -214 -69 -257 57 -51 96 -26 180 113 l69 114 5 -56 c4
-45 11 -61 33 -80 32 -28 63 -30 95 -8 20 14 24 14 44 0 30 -21 60 -20 90 4
25 19 26 19 43 0 42 -46 136 -44 192 4 20 17 26 31 25 58 -1 32 3 38 46 65 43
26 70 64 86 116 5 15 21 17 151 17 122 0 145 2 145 15 0 12 -18 15 -100 15
l-99 0 -12 43 c-6 23 -26 96 -44 162 l-32 120 140 5 c100 4 142 9 145 18 3 9
-43 12 -210 12 l-213 -1 -280 -125z m424 -57 c22 -84 41 -158 41 -165 0 -7
-13 -12 -29 -12 -27 0 -30 4 -50 78 -11 42 -32 116 -45 165 l-24 87 32 0 33 0
42 -153z m-92 -18 c48 -176 50 -202 24 -246 -25 -40 -96 -82 -138 -81 -32 1
-33 3 -33 42 0 49 -14 76 -30 60 -6 -6 -10 -38 -8 -75 l3 -64 42 3 c45 3 58
-7 49 -43 -9 -37 -101 -59 -146 -35 -31 16 -43 49 -49 132 -8 110 -25 104 -29
-10 -3 -85 -5 -93 -27 -108 -18 -12 -28 -13 -44 -4 -25 13 -30 33 -33 130 -4
107 -22 94 -26 -18 -3 -85 -5 -93 -27 -108 -18 -12 -28 -13 -44 -4 -25 13 -30
33 -33 130 -2 41 -7 75 -12 75 -6 0 -49 -65 -96 -144 -48 -79 -95 -148 -104
-153 -29 -16 -66 6 -66 38 0 29 168 330 210 377 17 18 114 67 290 147 146 65
269 118 275 116 5 -1 28 -72 52 -157z"/>
<path d="M2394 3420 c-37 -12 -50 -25 -59 -63 l-7 -27 61 0 c34 0 61 -4 61
-10 0 -5 -6 -10 -13 -10 -18 0 -43 -28 -52 -60 -4 -13 -14 -30 -21 -38 -8 -7
-14 -22 -14 -32 0 -14 -12 -21 -49 -29 -170 -36 -313 -146 -386 -296 -29 -59
-55 -146 -55 -187 0 -15 -9 -42 -20 -60 -22 -37 -26 -78 -8 -96 7 -7 36 -12
65 -12 40 0 53 -4 53 -15 0 -12 -13 -15 -58 -15 -64 0 -94 -15 -117 -60 -8
-16 -34 -41 -57 -57 -48 -32 -73 -87 -47 -104 8 -5 78 -9 156 -9 l142 0 -50
-47 c-139 -130 -197 -421 -101 -506 74 -66 233 2 309 131 23 39 27 42 36 26
21 -39 39 -42 68 -13 16 16 23 18 34 9 10 -8 19 -8 33 -1 15 8 23 7 32 -4 17
-20 38 -19 83 5 l37 20 0 -25 c0 -14 5 -25 10 -25 6 0 10 14 10 32 l0 31 23
-21 c13 -12 30 -22 39 -22 18 0 69 39 51 40 -6 0 -15 -4 -18 -10 -8 -12 -35
-13 -55 0 -12 7 -11 13 10 35 19 20 21 28 12 37 -10 10 -17 10 -32 0 -11 -7
-20 -11 -20 -9 0 2 9 43 20 93 23 106 25 138 6 153 -10 8 -16 8 -25 -3 -13
-16 -31 -152 -31 -237 0 -55 -1 -57 -35 -74 -47 -21 -70 -17 -70 15 0 20 6 26
28 28 15 2 25 8 22 13 -13 19 -45 7 -71 -26 -30 -40 -49 -41 -49 -2 0 38 -17
38 -27 1 -9 -36 -32 -59 -52 -51 -23 9 -25 58 -5 110 43 109 44 243 1 235 -25
-5 -40 -76 -41 -194 -1 -100 -1 -102 -40 -161 -43 -67 -84 -102 -155 -133 -58
-26 -96 -20 -130 21 -77 91 -9 360 121 479 39 36 63 50 84 50 27 0 29 -2 29
-40 0 -22 -11 -68 -25 -102 -24 -60 -26 -76 -7 -64 16 10 55 125 56 166 l1 40
382 0 383 0 -46 -42 c-46 -42 -84 -103 -84 -134 0 -9 14 -29 30 -44 27 -25 29
-30 14 -38 -35 -19 -114 -107 -134 -146 -24 -50 -26 -123 -5 -153 23 -33 79
-48 128 -33 62 18 107 51 183 134 65 70 71 74 82 56 17 -27 30 -25 45 8 6 15
14 29 18 32 3 3 3 14 -1 25 -8 21 -10 18 -36 -55 -4 -13 -6 -13 -14 0 -6 8
-10 27 -10 43 0 15 -4 27 -10 27 -5 0 -10 -9 -10 -20 0 -28 -144 -176 -205
-211 -93 -53 -155 -29 -155 60 0 104 117 231 234 256 20 4 26 9 18 17 -7 7
-20 7 -43 -1 -48 -17 -67 -14 -85 14 -23 35 -3 87 57 147 52 52 85 64 73 26
-4 -13 -13 -32 -20 -43 -16 -23 -18 -45 -4 -45 13 0 62 98 55 110 -4 6 55 10
157 10 90 0 169 4 177 9 25 16 -7 82 -51 106 -20 10 -44 33 -53 50 -30 52 -54
65 -122 65 -49 0 -63 3 -63 15 0 11 12 15 49 15 73 0 81 6 81 54 0 23 -5 47
-11 53 -6 6 -19 50 -30 99 -27 128 -69 205 -154 291 -79 79 -174 133 -271 153
-38 8 -54 16 -54 27 0 9 -8 25 -17 35 -10 11 -22 34 -28 51 -5 18 -20 36 -32
42 -38 16 -26 25 32 25 51 0 55 2 55 23 0 41 -41 68 -107 73 -32 2 -72 -1 -89
-6z m156 -45 c11 -13 0 -15 -85 -15 -85 0 -96 2 -85 15 9 11 33 15 85 15 52 0
76 -4 85 -15z m-52 -107 c25 -25 13 -38 -33 -38 -45 0 -50 5 -39 34 7 19 55
21 72 4z m45 -93 c-2 -5 -39 -11 -83 -13 -67 -2 -80 0 -80 13 0 13 13 15 83
13 48 -2 81 -7 80 -13z m92 -60 c98 -25 177 -70 247 -139 77 -76 123 -164 144
-274 8 -42 22 -89 30 -104 34 -62 74 -58 -591 -58 l-605 0 0 23 c0 13 5 28 11
34 7 7 18 47 25 90 36 207 193 379 390 427 81 20 274 20 349 1z m305 -630 c0
-13 -59 -15 -475 -15 -416 0 -475 2 -475 15 0 13 59 15 475 15 416 0 475 -2
475 -15z m163 -69 c12 -14 32 -38 45 -55 13 -17 28 -31 34 -31 14 0 48 -30 48
-42 0 -4 -344 -8 -765 -8 -421 0 -765 3 -765 7 0 12 33 43 46 43 12 0 38 29
77 84 l18 26 620 0 620 0 22 -24z m-893 -303 c0 -51 -22 -159 -35 -171 -8 -7
2 155 12 196 9 39 23 24 23 -25z m300 35 c0 -2 -7 -41 -15 -87 -16 -93 -30
-125 -21 -46 4 28 9 69 12 93 3 23 9 42 15 42 5 0 9 -1 9 -2z m0 -243 c-7 -8
-17 -15 -22 -15 -6 0 -5 7 2 15 7 8 17 15 22 15 6 0 5 -7 -2 -15z"/>
<path d="M2455 3054 c-76 -49 -145 -169 -145 -250 0 -45 37 -84 80 -84 60 0
122 36 163 95 15 21 9 18 -22 -13 -100 -102 -208 -95 -204 13 3 87 107 233
178 251 44 11 48 -8 16 -69 -33 -63 -29 -77 6 -23 31 47 39 86 22 97 -24 15
-54 10 -94 -17z"/>
<path d="M2665 2914 c-69 -36 -98 -83 -70 -114 16 -18 15 -19 -17 -35 -91 -47
-133 -130 -88 -175 24 -24 67 -26 117 -5 42 18 147 94 140 102 -3 2 -28 -13
-56 -35 -57 -45 -127 -75 -162 -70 -38 5 -49 51 -22 96 24 43 95 91 142 97 46
5 52 15 9 15 -75 0 -72 59 7 105 43 26 59 17 29 -16 -26 -28 -11 -33 16 -4 23
24 22 55 -2 55 -7 0 -26 -7 -43 -16z"/>
<path d="M1837 2373 c-4 -3 -7 -12 -7 -20 0 -11 113 -13 635 -13 536 0 635 2
635 14 0 8 -7 17 -16 20 -21 8 -1239 8 -1247 -1z"/>
<path d="M1990 3135 c0 -42 3 -55 15 -55 12 0 15 13 15 55 0 42 -3 55 -15 55
-12 0 -15 -13 -15 -55z"/>
<path d="M2910 3134 c0 -73 24 -70 28 4 2 42 0 52 -12 52 -13 0 -16 -12 -16
-56z"/>
<path d="M1860 3117 c0 -13 70 -87 83 -87 19 0 4 39 -26 68 -35 34 -57 41 -57
19z"/>
<path d="M3005 3090 c-30 -31 -36 -43 -27 -52 9 -9 21 -3 52 27 40 39 51 65
27 65 -7 0 -31 -18 -52 -40z"/>
<path d="M1814 2989 c-9 -15 15 -29 51 -29 17 0 36 4 44 9 24 15 1 31 -44 31
-24 0 -47 -5 -51 -11z"/>
<path d="M3014 2989 c-9 -15 15 -29 51 -29 17 0 36 4 44 9 24 15 1 31 -44 31
-24 0 -47 -5 -51 -11z"/>
<path d="M3380 2005 c0 -19 -5 -25 -22 -26 -17 -1 -19 -2 -5 -6 13 -3 17 -15
17 -48 0 -54 -8 -75 -27 -75 -11 0 -13 7 -9 26 4 15 2 32 -5 40 -10 13 -15 12
-34 0 -17 -11 -25 -12 -34 -3 -8 8 -11 5 -11 -11 0 -16 -12 -28 -44 -44 -48
-23 -76 -19 -76 11 0 14 8 21 27 23 38 4 42 28 5 28 -41 0 -66 -29 -53 -64 9
-21 17 -26 43 -26 18 1 44 7 58 15 32 18 40 18 40 0 0 -28 17 -15 35 28 l19
42 4 -38 c4 -42 23 -57 48 -36 13 11 17 10 25 -4 15 -26 42 -20 75 15 l29 32
-33 -27 c-19 -15 -37 -27 -42 -27 -15 0 -21 34 -14 87 l6 52 52 4 51 3 -52 2
c-49 2 -53 4 -53 27 0 14 -4 25 -10 25 -5 0 -10 -11 -10 -25z"/>
<path d="M2265 1960 c-3 -5 -1 -10 4 -10 6 0 11 5 11 10 0 6 -2 10 -4 10 -3 0
-8 -4 -11 -10z"/>
</g>
</svg>
